<svg width="25" height="24" viewBox="0 0 25 24" fill="none" xmlns="http://www.w3.org/2000/svg">
<path d="M19.6924 5.63591C23.2071 9.15063 23.2071 14.8491 19.6924 18.3638M17.041 8.28765C19.0913 10.3379 19.0913 13.662 17.041 15.7123M7.32837 8.24993L12.048 3.53026C12.5205 3.05778 13.3284 3.39241 13.3284 4.06059V19.9393C13.3284 20.6074 12.5205 20.9421 12.048 20.4696L7.32837 15.7499H5.08742C4.20808 15.7499 3.38427 15.2435 3.15074 14.3957C2.94061 13.6329 2.82837 12.8295 2.82837 11.9999C2.82837 11.1703 2.94061 10.367 3.15074 9.60416C3.38427 8.7564 4.20808 8.24993 5.08742 8.24993H7.32837Z" stroke="#0F172A" stroke-width="1.5" stroke-linecap="round" stroke-linejoin="round"/>
</svg>
